# Blender v2.75 (sub 0) OBJ File: 'air_hockey_table_11.blend'
# www.blender.org
mtllib walls.mtl
o walls_Plane.001
v -12.092034 4.812228 9.380158
v -12.323022 4.812228 9.369764
v -12.557843 4.812228 9.323135
v -12.788043 4.812228 9.246567
v -13.011487 4.812228 9.140389
v -13.226008 4.812228 9.005640
v -13.429557 4.812228 8.843615
v -13.620166 4.812228 8.655874
v -13.795999 4.812228 8.444230
v -13.955366 4.812228 8.210715
v -14.096733 4.812228 7.957577
v -14.218736 4.812228 7.687258
v -14.320200 4.812228 7.402362
v -14.400149 4.812228 7.105620
v -14.457806 4.812228 6.799908
v -14.492898 4.812228 6.488052
v -14.501043 4.812228 6.181289
v -14.490284 4.812228 2.063285
v -12.092034 4.812228 -9.380158
v -12.323022 4.812228 -9.369765
v -12.557844 4.812228 -9.323136
v -12.788043 4.812228 -9.246568
v -13.011487 4.812228 -9.140390
v -13.226008 4.812228 -9.005641
v -13.429558 4.812228 -8.843616
v -13.620166 4.812228 -8.655875
v -13.796000 4.812228 -8.444230
v -13.955366 4.812228 -8.210715
v -14.096733 4.812228 -7.957577
v -14.218736 4.812228 -7.687258
v -14.320200 4.812228 -7.402362
v -14.400150 4.812228 -7.105620
v -14.457807 4.812228 -6.799908
v -14.492898 4.812228 -6.488052
v -14.501043 4.812228 -6.181289
v -14.490284 4.812228 -2.063285
v -13.006402 23.304043 10.447004
v -13.254857 23.304043 10.435430
v -13.507435 23.304043 10.383496
v -13.755041 23.304043 10.298220
v -13.995381 23.304043 10.179966
v -14.226125 23.304043 10.029891
v -14.445065 23.304043 9.849438
v -14.650087 23.304043 9.640346
v -14.839216 23.304043 9.404629
v -15.010634 23.304043 9.144555
v -15.162691 23.304043 8.862628
v -15.293919 23.304043 8.561563
v -15.403056 23.304043 8.244266
v -15.489052 23.304043 7.913774
v -15.551067 23.304043 7.573291
v -15.588812 23.304043 7.225967
v -15.597574 23.304043 6.884315
v -15.586001 23.304043 2.297951
v -13.006402 23.304043 -10.447004
v -13.254857 23.304043 -10.435431
v -13.507436 23.304043 -10.383497
v -13.755041 23.304043 -10.298221
v -13.995381 23.304043 -10.179967
v -14.226125 23.304043 -10.029892
v -14.445065 23.304043 -9.849439
v -14.650087 23.304043 -9.640347
v -14.839217 23.304043 -9.404629
v -15.010634 23.304043 -9.144556
v -15.162691 23.304043 -8.862628
v -15.293919 23.304043 -8.561563
v -15.403056 23.304043 -8.244266
v -15.489053 23.304043 -7.913774
v -15.551068 23.304043 -7.573291
v -15.588812 23.304043 -7.225967
v -15.597574 23.304043 -6.884315
v -15.586001 23.304043 -2.297951
v -20.315056 4.812228 -2.297951
v -20.315056 23.304043 -2.297951
v -20.315056 23.304043 2.297951
v -20.315056 4.812228 2.297951
v 12.092034 4.812228 9.380158
v 12.323022 4.812228 9.369764
v 12.557843 4.812228 9.323135
v 12.788043 4.812228 9.246567
v 13.011487 4.812228 9.140389
v 13.226008 4.812228 9.005640
v 13.429557 4.812228 8.843615
v 13.620166 4.812228 8.655874
v 13.795999 4.812228 8.444230
v 13.955366 4.812228 8.210715
v 14.096733 4.812228 7.957577
v 14.218736 4.812228 7.687258
v 14.320200 4.812228 7.402362
v 14.400149 4.812228 7.105620
v 14.457806 4.812228 6.799908
v 14.492898 4.812228 6.488052
v 14.501043 4.812228 6.181289
v 0.000000 4.812228 9.376284
v 14.490284 4.812228 2.063285
v 12.092034 4.812228 -9.380158
v 12.323022 4.812228 -9.369765
v 12.557844 4.812228 -9.323136
v 12.788043 4.812228 -9.246568
v 13.011487 4.812228 -9.140390
v 13.226008 4.812228 -9.005641
v 13.429558 4.812228 -8.843616
v 13.620166 4.812228 -8.655875
v 13.796000 4.812228 -8.444230
v 13.955366 4.812228 -8.210715
v 14.096733 4.812228 -7.957577
v 14.218736 4.812228 -7.687258
v 14.320200 4.812228 -7.402362
v 14.400150 4.812228 -7.105620
v 14.457807 4.812228 -6.799908
v 14.492898 4.812228 -6.488052
v 14.501043 4.812228 -6.181289
v 0.000000 4.812228 -9.376284
v 14.490284 4.812228 -2.063285
v 13.006402 23.304043 10.447004
v 13.254857 23.304043 10.435430
v 13.507435 23.304043 10.383496
v 13.755041 23.304043 10.298220
v 13.995381 23.304043 10.179966
v 14.226125 23.304043 10.029891
v 14.445065 23.304043 9.849438
v 14.650087 23.304043 9.640346
v 14.839216 23.304043 9.404629
v 15.010634 23.304043 9.144555
v 15.162691 23.304043 8.862628
v 15.293919 23.304043 8.561563
v 15.403056 23.304043 8.244266
v 15.489052 23.304043 7.913774
v 15.551067 23.304043 7.573291
v 15.588812 23.304043 7.225967
v 15.597574 23.304043 6.884315
v 0.000000 23.304043 10.442690
v 15.586001 23.304043 2.297951
v 13.006402 23.304043 -10.447004
v 13.254857 23.304043 -10.435431
v 13.507436 23.304043 -10.383497
v 13.755041 23.304043 -10.298221
v 13.995381 23.304043 -10.179967
v 14.226125 23.304043 -10.029892
v 14.445065 23.304043 -9.849439
v 14.650087 23.304043 -9.640347
v 14.839217 23.304043 -9.404629
v 15.010634 23.304043 -9.144556
v 15.162691 23.304043 -8.862628
v 15.293919 23.304043 -8.561563
v 15.403056 23.304043 -8.244266
v 15.489053 23.304043 -7.913774
v 15.551068 23.304043 -7.573291
v 15.588812 23.304043 -7.225967
v 15.597574 23.304043 -6.884315
v 0.000000 23.304043 -10.442690
v 15.586001 23.304043 -2.297951
v 20.315056 4.812228 -2.297951
v 20.315056 23.304043 -2.297951
v 20.315056 23.304043 2.297951
v 20.315056 4.812228 2.297951
vt 0.000015 0.527274
vt 0.000000 0.521472
vt 0.289337 0.522344
vt 0.286779 0.527588
vt 0.000000 0.515778
vt 0.292269 0.517089
vt 0.217551 0.936771
vt 0.001664 0.602843
vt 0.292226 0.590177
vt 0.386037 0.678640
vt 0.314901 0.119205
vt 0.319250 0.117115
vt 0.431902 0.353620
vt 0.426840 0.351978
vt 0.004387 0.399102
vt 0.316342 0.473155
vt 0.310583 0.121292
vt 0.422082 0.351226
vt 0.306278 0.123386
vt 0.417672 0.351101
vt 0.301986 0.125487
vt 0.413538 0.351495
vt 0.297706 0.127597
vt 0.409622 0.352326
vt 0.293437 0.129718
vt 0.405876 0.353537
vt 0.289179 0.131849
vt 0.402265 0.355090
vt 0.284930 0.133992
vt 0.398763 0.356963
vt 0.280689 0.136146
vt 0.395352 0.359139
vt 0.276454 0.138314
vt 0.392019 0.361612
vt 0.001470 0.597548
vt 0.288122 0.586055
vt 0.272145 0.140535
vt 0.388720 0.364403
vt 0.001280 0.592174
vt 0.285031 0.581782
vt 0.267740 0.142821
vt 0.385440 0.367529
vt 0.001101 0.586832
vt 0.282722 0.577533
vt 0.263251 0.145164
vt 0.382184 0.371000
vt 0.000935 0.581497
vt 0.281055 0.573293
vt 0.258697 0.147556
vt 0.378963 0.374826
vt 0.000781 0.576169
vt 0.279921 0.569043
vt 0.254084 0.149994
vt 0.375787 0.379021
vt 0.000641 0.570848
vt 0.279244 0.564765
vt 0.249604 0.152373
vt 0.372758 0.383516
vt 0.000514 0.565531
vt 0.278969 0.560443
vt 0.828991 0.000000
vt 0.556695 0.417179
vt 0.000401 0.560219
vt 0.279062 0.556065
vt 0.176611 0.206152
vt 0.344828 0.423229
vt 0.000303 0.554909
vt 0.279500 0.551620
vt 0.000218 0.549600
vt 0.280269 0.547099
vt 0.000146 0.544192
vt 0.281370 0.542447
vt 0.000088 0.538655
vt 0.282813 0.537644
vt 0.000044 0.533009
vt 0.284610 0.532690
vt 0.240234 0.354335
vt 0.223127 0.388837
vt 0.305712 0.420320
vt 0.292815 0.433029
vt 0.679973 0.971094
vt 0.564265 0.708706
vt 0.568035 0.704254
vt 0.685291 0.968772
vt 0.571665 0.699455
vt 0.690503 0.966480
vt 0.504776 0.728911
vt 0.610130 1.000000
vt 0.926792 0.518589
vt 0.668648 0.509808
vt 0.665107 0.505835
vt 0.926955 0.513766
vt 0.602196 0.659735
vt 0.795547 0.915501
vt 0.926619 0.523381
vt 0.671252 0.513861
vt 0.926436 0.528165
vt 0.673141 0.517848
vt 0.926240 0.532940
vt 0.674444 0.521791
vt 0.926031 0.537708
vt 0.675260 0.525710
vt 0.925808 0.542469
vt 0.675659 0.529627
vt 0.925571 0.547225
vt 0.675691 0.533558
vt 0.925320 0.551977
vt 0.675386 0.537517
vt 0.925054 0.556726
vt 0.674767 0.541516
vt 0.924774 0.561475
vt 0.673844 0.545562
vt 0.510202 0.731009
vt 0.615056 0.998047
vt 0.924475 0.566314
vt 0.672617 0.549706
vt 0.515358 0.732119
vt 0.620051 0.996058
vt 0.924156 0.571267
vt 0.671076 0.553967
vt 0.520176 0.732523
vt 0.625014 0.994071
vt 0.923818 0.576319
vt 0.669209 0.558344
vt 0.524729 0.732342
vt 0.629964 0.992076
vt 0.923461 0.581451
vt 0.667003 0.562833
vt 0.529076 0.731669
vt 0.634903 0.990072
vt 0.923086 0.586656
vt 0.664441 0.567428
vt 0.533265 0.730567
vt 0.639831 0.988059
vt 0.922711 0.591715
vt 0.661546 0.572010
vt 0.537331 0.729080
vt 0.644749 0.986035
vt 0.541302 0.727233
vt 0.649658 0.984000
vt 0.902860 0.680181
vt 0.636433 0.613562
vt 0.545195 0.725043
vt 0.654558 0.981953
vt 0.549024 0.722518
vt 0.659452 0.979894
vt 0.552839 0.719638
vt 0.664433 0.977783
vt 0.556655 0.716384
vt 0.669525 0.975608
vt 0.560467 0.712745
vt 0.674711 0.973375
vt 0.716901 0.711129
vt 0.741600 0.681582
vt 0.648397 0.665121
vt 0.654841 0.648200
vn -0.992000 -0.063200 -0.109600
vn -0.997800 -0.060200 -0.026000
vn 0.000300 -0.057600 -0.998300
vn -0.045700 -0.059800 0.997200
vn -0.998200 -0.059100 0.002600
vn -0.197800 -0.066300 0.978000
vn -0.320000 -0.070500 0.944800
vn -0.434400 -0.073700 0.897700
vn -0.537300 -0.075700 0.840000
vn -0.627900 -0.076700 0.774500
vn -0.706100 -0.076900 0.703900
vn -0.772600 -0.076500 0.630300
vn -0.828300 -0.075400 0.555100
vn -0.874400 -0.074000 0.479500
vn -0.045700 -0.059800 -0.997200
vn -0.911800 -0.072200 0.404100
vn -0.197800 -0.066300 -0.978000
vn -0.941600 -0.070200 0.329300
vn -0.320000 -0.070500 -0.944800
vn -0.964500 -0.068000 0.255200
vn -0.434400 -0.073700 -0.897700
vn -0.981200 -0.065700 0.181700
vn -0.537300 -0.075700 -0.840000
vn -0.992000 -0.063200 0.109600
vn -0.627900 -0.076700 -0.774500
vn -0.997800 -0.060200 0.026000
vn -0.706100 -0.076900 -0.703900
vn 0.000300 -0.057600 0.998300
vn -0.772600 -0.076500 -0.630300
vn -0.998200 -0.059100 -0.002600
vn -0.828300 -0.075400 -0.555100
vn -0.874400 -0.074000 -0.479500
vn -0.911800 -0.072200 -0.404100
vn -0.941600 -0.070200 -0.329300
vn -0.964500 -0.068000 -0.255200
vn -0.981200 -0.065700 -0.181700
vn 0.000000 -1.000000 0.000000
vn -1.000000 0.000000 0.000000
vn 0.022200 -0.005700 -0.999700
vn 0.022200 -0.005700 0.999700
vn 0.000000 1.000000 0.000000
vn 0.992000 -0.063200 -0.109600
vn 0.997800 -0.060200 -0.026000
vn -0.000300 -0.057600 -0.998300
vn 0.045700 -0.059800 0.997200
vn 0.998200 -0.059100 0.002600
vn 0.197800 -0.066300 0.978000
vn 0.320000 -0.070500 0.944800
vn 0.434400 -0.073700 0.897700
vn 0.537300 -0.075700 0.840000
vn 0.627900 -0.076700 0.774500
vn 0.706100 -0.076900 0.703900
vn 0.772600 -0.076500 0.630300
vn 0.828300 -0.075400 0.555100
vn 0.874400 -0.074000 0.479500
vn 0.045700 -0.059800 -0.997200
vn 0.911800 -0.072200 0.404100
vn 0.197800 -0.066300 -0.978000
vn 0.941600 -0.070200 0.329300
vn 0.320000 -0.070500 -0.944800
vn 0.964500 -0.068000 0.255200
vn 0.434400 -0.073700 -0.897700
vn 0.981200 -0.065700 0.181700
vn 0.537300 -0.075700 -0.840000
vn 0.992000 -0.063200 0.109600
vn 0.627900 -0.076700 -0.774500
vn 0.997800 -0.060200 0.026000
vn 0.706100 -0.076900 -0.703900
vn -0.000300 -0.057600 0.998300
vn 0.772600 -0.076500 -0.630300
vn 0.998200 -0.059100 -0.002600
vn 0.828300 -0.075400 -0.555100
vn 0.874400 -0.074000 -0.479500
vn 0.911800 -0.072200 -0.404100
vn 0.941600 -0.070200 -0.329300
vn 0.964500 -0.068000 -0.255200
vn 0.981200 -0.065700 -0.181700
vn 1.000000 0.000000 0.000000
vn -0.022200 -0.005700 -0.999700
vn -0.022200 -0.005700 0.999700
vn 0.000000 1.000000 -0.000100
usemtl hockey_mat
s off
f 33/1/1 34/2/1 70/3/1 69/4/1
f 34/2/2 35/5/2 71/6/2 70/3/2
f 113/7/3 19/8/3 55/9/3 151/10/3
f 2/11/4 1/12/4 37/13/4 38/14/4
f 35/5/5 36/15/5 72/16/5 71/6/5
f 3/17/6 2/11/6 38/14/6 39/18/6
f 4/19/7 3/17/7 39/18/7 40/20/7
f 5/21/8 4/19/8 40/20/8 41/22/8
f 6/23/9 5/21/9 41/22/9 42/24/9
f 7/25/10 6/23/10 42/24/10 43/26/10
f 8/27/11 7/25/11 43/26/11 44/28/11
f 9/29/12 8/27/12 44/28/12 45/30/12
f 10/31/13 9/29/13 45/30/13 46/32/13
f 11/33/14 10/31/14 46/32/14 47/34/14
f 19/8/15 20/35/15 56/36/15 55/9/15
f 12/37/16 11/33/16 47/34/16 48/38/16
f 20/35/17 21/39/17 57/40/17 56/36/17
f 13/41/18 12/37/18 48/38/18 49/42/18
f 21/39/19 22/43/19 58/44/19 57/40/19
f 14/45/20 13/41/20 49/42/20 50/46/20
f 22/43/21 23/47/21 59/48/21 58/44/21
f 15/49/22 14/45/22 50/46/22 51/50/22
f 23/47/23 24/51/23 60/52/23 59/48/23
f 16/53/24 15/49/24 51/50/24 52/54/24
f 24/51/25 25/55/25 61/56/25 60/52/25
f 17/57/26 16/53/26 52/54/26 53/58/26
f 25/55/27 26/59/27 62/60/27 61/56/27
f 1/12/28 94/61/28 132/62/28 37/13/28
f 26/59/29 27/63/29 63/64/29 62/60/29
f 18/65/30 17/57/30 53/58/30 54/66/30
f 27/63/31 28/67/31 64/68/31 63/64/31
f 28/67/32 29/69/32 65/70/32 64/68/32
f 29/69/33 30/71/33 66/72/33 65/70/33
f 30/71/34 31/73/34 67/74/34 66/72/34
f 31/73/35 32/75/35 68/76/35 67/74/35
f 32/75/36 33/1/36 69/4/36 68/76/36
f 18/65/37 76/77/37 73/78/37 36/15/37
f 73/78/38 76/77/38 75/79/38 74/80/38
f 72/16/39 36/15/39 73/78/39 74/80/39
f 18/65/40 54/66/40 75/79/40 76/77/40
f 54/66/41 72/16/41 74/80/41 75/79/41
f 110/81/42 148/82/42 149/83/42 111/84/42
f 111/84/43 149/83/43 150/85/43 112/86/43
f 113/7/44 151/10/44 134/87/44 96/88/44
f 78/89/45 116/90/45 115/91/45 77/92/45
f 112/86/46 150/85/46 152/93/46 114/94/46
f 79/95/47 117/96/47 116/90/47 78/89/47
f 80/97/48 118/98/48 117/96/48 79/95/48
f 81/99/49 119/100/49 118/98/49 80/97/49
f 82/101/50 120/102/50 119/100/50 81/99/50
f 83/103/51 121/104/51 120/102/51 82/101/51
f 84/105/52 122/106/52 121/104/52 83/103/52
f 85/107/53 123/108/53 122/106/53 84/105/53
f 86/109/54 124/110/54 123/108/54 85/107/54
f 87/111/55 125/112/55 124/110/55 86/109/55
f 96/88/56 134/87/56 135/113/56 97/114/56
f 88/115/57 126/116/57 125/112/57 87/111/57
f 97/114/58 135/113/58 136/117/58 98/118/58
f 89/119/59 127/120/59 126/116/59 88/115/59
f 98/118/60 136/117/60 137/121/60 99/122/60
f 90/123/61 128/124/61 127/120/61 89/119/61
f 99/122/62 137/121/62 138/125/62 100/126/62
f 91/127/63 129/128/63 128/124/63 90/123/63
f 100/126/64 138/125/64 139/129/64 101/130/64
f 92/131/65 130/132/65 129/128/65 91/127/65
f 101/130/66 139/129/66 140/133/66 102/134/66
f 93/135/67 131/136/67 130/132/67 92/131/67
f 102/134/68 140/133/68 141/137/68 103/138/68
f 77/92/69 115/91/69 132/62/69 94/61/69
f 103/138/70 141/137/70 142/139/70 104/140/70
f 95/141/71 133/142/71 131/136/71 93/135/71
f 104/140/72 142/139/72 143/143/72 105/144/72
f 105/144/73 143/143/73 144/145/73 106/146/73
f 106/146/74 144/145/74 145/147/74 107/148/74
f 107/148/75 145/147/75 146/149/75 108/150/75
f 108/150/76 146/149/76 147/151/76 109/152/76
f 109/152/77 147/151/77 148/82/77 110/81/77
f 95/141/37 114/94/37 153/153/37 156/154/37
f 153/153/78 154/155/78 155/156/78 156/154/78
f 152/93/79 154/155/79 153/153/79 114/94/79
f 95/141/80 156/154/80 155/156/80 133/142/80
f 133/142/41 155/156/41 154/155/41 152/93/41
f 132/62/41 151/10/41 72/16/41
f 37/13/81 39/18/81 38/14/81
f 37/13/41 41/22/41 40/20/41
f 37/13/41 43/26/41 42/24/41
f 37/13/41 45/30/41 44/28/41
f 37/13/41 47/34/41 46/32/41
f 37/13/41 49/42/41 48/38/41
f 37/13/41 51/50/41 50/46/41
f 51/50/41 37/13/41 52/54/41
f 55/9/41 71/6/41 72/16/41
f 49/42/41 37/13/41 50/46/41
f 55/9/41 70/3/41 71/6/41
f 52/54/41 37/13/41 53/58/41
f 45/30/41 37/13/41 46/32/41
f 41/22/41 37/13/41 42/24/41
f 37/13/41 40/20/41 39/18/41
f 54/66/41 37/13/41 132/62/41
f 117/96/81 115/91/81 116/90/81
f 115/91/41 117/96/41 118/98/41
f 115/91/41 119/100/41 120/102/41
f 115/91/41 121/104/41 122/106/41
f 115/91/41 123/108/41 124/110/41
f 115/91/41 125/112/41 126/116/41
f 115/91/41 127/120/41 128/124/41
f 115/91/41 129/128/41 130/132/41
f 115/91/41 131/136/41 133/142/41
f 148/82/41 134/87/41 149/83/41
f 115/91/41 130/132/41 131/136/41
f 147/151/41 134/87/41 148/82/41
f 132/62/41 133/142/41 152/93/41
f 115/91/41 126/116/41 127/120/41
f 115/91/41 122/106/41 123/108/41
f 115/91/41 118/98/41 119/100/41
f 133/142/41 132/62/41 115/91/41
f 37/13/41 44/28/41 43/26/41
f 47/34/41 37/13/41 48/38/41
f 55/9/41 69/4/41 70/3/41
f 55/9/41 67/74/41 68/76/41
f 55/9/41 65/70/41 66/72/41
f 55/9/41 63/64/41 64/68/41
f 55/9/41 61/56/41 62/60/41
f 55/9/41 59/48/41 60/52/41
f 55/9/41 57/40/41 58/44/41
f 57/40/81 55/9/81 56/36/81
f 152/93/41 134/87/41 151/10/41
f 134/87/81 136/117/81 135/113/81
f 134/87/41 138/125/41 137/121/41
f 134/87/41 140/133/41 139/129/41
f 134/87/41 142/139/41 141/137/41
f 134/87/41 144/145/41 143/143/41
f 134/87/41 146/149/41 145/147/41
f 146/149/41 134/87/41 147/151/41
f 115/91/41 128/124/41 129/128/41
f 115/91/41 120/102/41 121/104/41
f 72/16/41 54/66/41 132/62/41
f 53/58/41 37/13/41 54/66/41
f 55/9/41 66/72/41 67/74/41
f 55/9/41 62/60/41 63/64/41
f 55/9/41 58/44/41 59/48/41
f 72/16/41 151/10/41 55/9/41
f 134/87/41 137/121/41 136/117/41
f 138/125/41 134/87/41 139/129/41
f 142/139/41 134/87/41 143/143/41
f 145/147/41 144/145/41 134/87/41
f 125/112/41 115/91/41 124/110/41
f 55/9/41 68/76/41 69/4/41
f 55/9/41 60/52/41 61/56/41
f 152/93/41 150/85/41 134/87/41
f 140/133/41 134/87/41 141/137/41
f 151/10/41 132/62/41 152/93/41
f 55/9/41 64/68/41 65/70/41
f 134/87/41 150/85/41 149/83/41
