# Blender v2.75 (sub 0) OBJ File: 'maze_4.blend'
# www.blender.org
mtllib maze_easy.mtl
o maze_easy_Mesh.008
v -6.505100 -1.000000 -3.841127
v -6.505100 1.000000 -3.841127
v -6.505100 -1.000000 -6.460078
v -6.505100 1.000000 -6.460078
v -1.266093 1.000000 -3.841127
v -3.885596 1.000000 -3.841127
v -1.266093 -1.000000 -6.460078
v -1.266093 1.000000 -6.460078
v 1.353411 1.000000 -6.460078
v 1.353411 -1.000000 -3.841127
v -1.266093 -1.000000 -3.841127
v 1.353411 -1.000000 -6.460078
v 3.972915 -1.000000 -6.460078
v 3.972915 -1.000000 -3.841127
v 3.972915 1.000000 -3.841127
v 3.972915 1.000000 -6.460078
v 6.592418 -1.000000 -6.460078
v 6.592418 1.000000 -6.460078
v 6.592418 -1.000000 -3.841127
v -6.505100 -1.000000 -1.222177
v -6.505100 1.000000 -1.222177
v -3.885596 -1.000000 -3.841127
v 1.353411 1.000000 -3.841127
v 1.353411 -1.000000 -1.222177
v 3.972915 -1.000000 -1.222177
v 3.972915 1.000000 -1.222177
v 1.353411 1.000000 -1.222177
v 6.592418 1.000000 -3.841127
v -6.505100 -1.000000 1.396774
v -3.885596 -1.000000 -1.222177
v -3.885596 1.000000 -1.222177
v -1.266093 -1.000000 -1.222177
v -1.266093 1.000000 -1.222177
v 1.353411 1.000000 1.396774
v -1.266093 -1.000000 1.396774
v -1.266093 1.000000 1.396774
v 3.972915 -1.000000 1.396774
v 3.972915 1.000000 1.396774
v 1.353411 -1.000000 1.396774
v 6.592418 -1.000000 -1.222177
v 6.592418 1.000000 -1.222177
v 6.592418 -1.000000 1.396774
v 6.592418 1.000000 1.396774
v -6.505100 -1.000000 4.015724
v -6.505100 1.000000 1.396774
v -3.885596 -1.000000 1.396774
v -3.885596 1.000000 1.396774
v -3.885596 -1.000000 4.015724
v -3.885596 1.000000 4.015724
v 1.353411 1.000000 4.015724
v -1.266093 -1.000000 4.015724
v -1.266093 1.000000 4.015724
v 3.972915 -1.000000 4.015724
v 3.972915 1.000000 4.015724
v 6.592418 -1.000000 4.015724
v 6.592418 1.000000 4.015724
v -3.885596 1.000000 6.634675
v -6.505100 -1.000000 6.634675
v -6.505100 1.000000 6.634675
v -6.505100 1.000000 4.015724
v -1.266093 -1.000000 6.634675
v -1.266093 1.000000 6.634675
v -3.885596 -1.000000 6.634675
v 1.353411 -1.000000 4.015724
v 1.353411 -1.000000 6.634675
v 1.353411 1.000000 6.634675
v 6.592418 -1.000000 6.634675
v 6.592418 1.000000 6.634675
v 3.972915 -1.000000 6.634675
v 3.972915 1.000000 6.634675
v -6.305100 -1.000000 -3.841127
v -6.305100 1.000000 -3.841127
v -6.305100 -1.000000 -6.260078
v -6.305100 1.000000 -6.260078
v -1.266093 1.000000 -4.041127
v -4.085596 1.000000 -4.041127
v -1.266093 -1.000000 -6.260078
v -1.266093 1.000000 -6.260078
v 1.353411 1.000000 -6.260078
v 1.553411 -1.000000 -4.041127
v -1.266093 -1.000000 -4.041127
v 1.353411 -1.000000 -6.260078
v 4.102729 -1.000000 -6.200449
v 4.172915 -1.000000 -3.841127
v 4.172915 1.000000 -3.841127
v 4.065876 1.000000 -6.274154
v 6.421708 -1.000000 -6.289367
v 6.392418 1.000000 -6.260078
v 6.392418 -1.000000 -3.841127
v -6.305100 -1.000000 -1.222177
v -6.305100 1.000000 -1.222177
v -4.085596 -1.000000 -4.041127
v 1.553411 1.000000 -4.041127
v 1.553411 -1.000000 -1.422177
v 4.143625 -1.000000 -1.392888
v 4.172915 1.000000 -1.422177
v 1.553411 1.000000 -1.422177
v 6.392418 1.000000 -3.841127
v -6.305100 -1.000000 1.396774
v -4.085596 -1.000000 -1.222177
v -4.085596 1.000000 -1.222177
v -1.066093 -1.000000 -1.222177
v -1.066093 1.000000 -1.222177
v 1.353411 1.000000 1.196774
v -1.066093 -1.000000 1.196774
v -1.066093 1.000000 1.196774
v 4.158838 -1.000000 1.303812
v 4.232543 1.000000 1.266959
v 1.353411 -1.000000 1.196774
v 6.392418 -1.000000 -1.222177
v 6.392418 1.000000 -1.222177
v 6.392418 -1.000000 1.396774
v 6.392418 1.000000 1.396774
v -6.305100 -1.000000 4.015724
v -6.305100 1.000000 1.396774
v -4.085596 -1.000000 1.396774
v -4.085596 1.000000 1.396774
v -4.085596 -1.000000 4.215724
v -4.085596 1.000000 4.215724
v 1.153411 1.000000 4.215724
v -1.266093 -1.000000 4.215724
v -1.266093 1.000000 4.215724
v 4.172915 -1.000000 4.015724
v 4.172915 1.000000 4.015724
v 6.392418 -1.000000 4.015724
v 6.392418 1.000000 4.015724
v -3.885596 1.000000 6.434675
v -6.305100 -1.000000 6.434675
v -6.305100 1.000000 6.434675
v -6.305100 1.000000 4.015724
v -1.266093 -1.000000 6.434675
v -1.266093 1.000000 6.434675
v -3.885596 -1.000000 6.434675
v 1.153411 -1.000000 4.215724
v 1.153411 -1.000000 6.634675
v 1.153411 1.000000 6.634675
v 6.392418 -1.000000 6.434675
v 6.392418 1.000000 6.434675
v 3.972915 -1.000000 6.434675
v 3.972915 1.000000 6.434675
v -6.305100 -1.130969 -6.260078
v 6.421708 -1.130969 -6.289367
v -6.305100 -1.130969 6.434675
v 6.392418 -1.130969 6.434675
v -6.305100 -0.885856 6.434675
v 6.392418 -0.885856 6.434675
v 6.421708 -0.885856 -6.289367
v -6.305100 -0.885856 -6.260078
v 1.793685 -1.130969 6.434675
v 1.812366 -1.130969 -6.278759
v 1.793685 -0.885856 6.434675
v 1.812366 -0.885856 -6.278759
v 3.668637 -1.130969 6.434675
v 3.668637 -0.885856 6.434675
v 3.691643 -1.130969 -6.283084
v 3.691643 -0.885856 -6.283084
v 6.396923 -1.130969 4.345027
v -6.305100 -1.130969 4.349531
v 6.396923 -0.885856 4.345027
v -6.305100 -0.885856 4.349531
v 1.796558 -0.885856 4.346658
v 1.796558 -1.130969 4.346658
v 3.672175 -0.885856 4.345993
v 3.672175 -1.130969 4.345993
v -6.305100 -1.130969 6.014070
v -6.305100 -0.885856 6.014070
v 1.794304 -1.130969 6.013450
v 3.669399 -1.130969 6.013308
v 6.393389 -1.130969 6.013099
v 6.393389 -0.885856 6.013099
v 1.794304 -0.885856 6.013450
v 3.669399 -0.885856 6.013308
vt 0.943741 0.000000
vt 0.998533 0.000000
vt 0.998533 0.071036
vt 0.751970 0.857929
vt 0.697178 0.857929
vt 0.697178 0.786893
vt 0.109584 0.913560
vt 0.054792 0.913560
vt 0.054792 0.842524
vt 0.547926 0.842524
vt 0.602718 0.842524
vt 0.602718 0.913575
vt 0.925062 0.568406
vt 0.979855 0.568406
vt 0.979855 0.710507
vt 0.383549 0.700453
vt 0.438341 0.700453
vt 0.438341 0.771503
vt 0.925062 0.497355
vt 0.979855 0.497355
vt 0.383549 0.771503
vt 0.438341 0.842554
vt 0.925062 0.426304
vt 0.979855 0.426305
vt 0.438342 0.913590
vt 0.383549 0.913590
vt 0.925062 0.355254
vt 0.979855 0.355254
vt 0.751970 0.715857
vt 0.697178 0.715857
vt 0.697178 0.644822
vt 0.943741 0.071036
vt 0.998533 0.142072
vt 0.109584 0.771488
vt 0.054792 0.771488
vt 0.054792 0.700453
vt 0.328757 0.913590
vt 0.328757 0.842554
vt 0.383549 0.842554
vt 0.273965 0.842554
vt 0.751970 0.786893
vt 0.943741 0.142072
vt 0.998533 0.213107
vt 0.109584 0.842524
vt 0.493134 0.842554
vt 0.493134 0.913590
vt 0.328757 0.700453
vt 0.547926 0.771488
vt 0.328757 0.771503
vt 0.943741 0.284143
vt 0.943741 0.213107
vt 0.493134 0.771503
vt 0.547926 0.842554
vt 0.547926 0.700453
vt 0.602718 0.700453
vt 0.751970 0.928964
vt 0.697178 0.928964
vt 0.273965 0.700453
vt 0.998533 0.284143
vt 0.998533 0.355179
vt 0.273965 0.771503
vt 0.219172 0.844174
vt 0.273964 0.844174
vt 0.273964 0.915210
vt 0.751970 1.000000
vt 0.697178 1.000000
vt 0.916350 0.989150
vt 0.861557 0.989151
vt 0.861557 0.923540
vt 0.806765 0.781468
vt 0.861557 0.781468
vt 0.861557 0.852504
vt 0.000000 0.700453
vt 0.054792 0.776913
vt 0.717490 0.289568
vt 0.772282 0.289568
vt 0.772282 0.355194
vt 0.751973 0.853344
vt 0.806765 0.853344
vt 0.806765 0.990021
vt 0.164376 0.776928
vt 0.164376 0.853403
vt 0.109584 0.853403
vt 0.751972 0.782293
vt 0.806765 0.782293
vt 0.109584 0.776928
vt 0.109584 0.700453
vt 0.751970 0.707722
vt 0.806765 0.708721
vt 0.164376 0.919400
vt 0.109584 0.919397
vt 0.109586 0.855400
vt 0.751973 0.644822
vt 0.806764 0.645616
vt 0.806765 0.923540
vt 0.916350 0.923539
vt 0.000000 0.847949
vt 0.054792 0.847949
vt 0.054792 0.924409
vt 0.164376 0.918984
vt 0.164376 0.847949
vt 0.219169 0.847949
vt 0.657511 0.837922
vt 0.657510 0.908180
vt 0.602718 0.908180
vt 0.806765 0.852504
vt 0.916350 0.852504
vt 0.000000 0.776913
vt 0.827074 0.355179
vt 0.827074 0.289568
vt 0.881866 0.289568
vt 0.219172 0.778548
vt 0.164376 0.775007
vt 0.219172 0.774011
vt 0.219172 0.847156
vt 0.273965 0.702449
vt 0.273964 0.778547
vt 0.916350 0.781468
vt 0.861557 0.710433
vt 0.493134 0.700453
vt 0.493134 0.776928
vt 0.438341 0.776928
vt 0.164380 0.700453
vt 0.219172 0.700453
vt 0.806765 0.710433
vt 0.657510 0.837129
vt 0.602718 0.837129
vt 0.602718 0.771503
vt 0.916350 0.710432
vt 0.861557 0.644822
vt 0.657510 0.771503
vt 0.806765 0.644822
vt 0.846185 0.497325
vt 0.846185 0.502750
vt 0.779900 0.502750
vt 0.702657 0.639397
vt 0.774421 0.639397
vt 0.774421 0.644822
vt 0.774421 0.426290
vt 0.774421 0.420865
vt 0.840706 0.420865
vt 0.683135 0.799910
vt 0.677656 0.799910
vt 0.677656 0.745662
vt 0.573992 0.000000
vt 0.573992 0.005425
vt 0.502243 0.005425
vt 0.071749 0.355254
vt 0.000000 0.355254
vt 0.005479 0.349829
vt 0.695329 0.754700
vt 0.689850 0.754700
vt 0.689850 0.700453
vt 0.669704 0.805560
vt 0.664225 0.805560
vt 0.664225 0.751312
vt 0.286996 0.355254
vt 0.286996 0.349829
vt 0.353266 0.349829
vt 0.938262 0.147496
vt 0.866498 0.147496
vt 0.866498 0.142071
vt 0.215247 0.000000
vt 0.215247 0.005425
vt 0.143498 0.005425
vt 0.717490 0.071051
vt 0.712011 0.071051
vt 0.712011 0.005425
vt 0.358745 0.071051
vt 0.353651 0.068529
vt 0.353266 0.005425
vt 0.866498 0.005425
vt 0.794733 0.005425
vt 0.794733 0.000000
vt 0.000000 0.284203
vt 0.005479 0.284203
vt 0.657510 0.751326
vt 0.662989 0.751326
vt 0.662989 0.805574
vt 0.917950 0.568361
vt 0.923429 0.573786
vt 0.851665 0.573786
vt 0.430494 0.071051
vt 0.365858 0.067530
vt 0.722969 0.218532
vt 0.717490 0.223957
vt 0.717490 0.147496
vt 0.717490 0.284203
vt 0.712011 0.284203
vt 0.712011 0.213152
vt 0.364224 0.142102
vt 0.670940 0.745676
vt 0.676420 0.745676
vt 0.676420 0.799924
vt 0.358745 0.213152
vt 0.353266 0.213152
vt 0.353266 0.142102
vt 0.000000 0.071051
vt 0.000000 0.000000
vt 0.005479 0.005425
vt 0.430494 0.000000
vt 0.430494 0.005425
vt 0.363422 0.004630
vt 0.430494 0.355254
vt 0.358745 0.355254
vt 0.364224 0.349829
vt 0.866498 0.289568
vt 0.861018 0.289568
vt 0.861018 0.223957
vt 0.702657 0.426290
vt 0.702657 0.497325
vt 0.697178 0.497325
vt 0.684371 0.754700
vt 0.684371 0.700453
vt 0.502243 0.355254
vt 0.502243 0.349829
vt 0.573992 0.349829
vt 0.358745 0.000000
vt 0.286996 0.071051
vt 0.286996 0.065626
vt 0.938262 0.076460
vt 0.866498 0.076460
vt 0.871977 0.071036
vt 0.645741 0.355254
vt 0.645741 0.349829
vt 0.712011 0.349829
vt 0.697178 0.568361
vt 0.717490 0.355254
vt 0.430494 0.349829
vt 0.794733 0.076460
vt 0.800213 0.076460
vt 0.800213 0.142071
vt 0.358745 0.142102
vt 0.364224 0.213152
vt 0.573992 0.355254
vt 0.702657 0.568361
vt 0.502243 0.000000
vt 0.794733 0.218532
vt 0.794733 0.223957
vt 0.917950 0.497325
vt 0.917950 0.426290
vt 0.923429 0.426290
vt 0.000000 0.213152
vt 0.005479 0.213152
vt 0.286996 0.000000
vt 0.645741 0.000000
vt 0.645741 0.005425
vt 0.794733 0.147496
vt 0.143498 0.355254
vt 0.143498 0.349829
vt 0.215247 0.349829
vt 0.942939 0.071830
vt 0.943355 0.144975
vt 0.286996 0.005425
vt 0.871977 0.000000
vt 0.717490 0.000000
vt 0.722969 0.005425
vt 0.722969 0.076460
vt 0.717490 0.076460
vt 0.774421 0.568361
vt 0.774421 0.497325
vt 0.846185 0.639397
vt 0.851665 0.644822
vt 0.071749 0.349829
vt 0.215247 0.355254
vt 0.866498 0.218532
vt 0.925062 0.500846
vt 0.846185 0.355254
vt 0.846185 0.426290
vt 0.697178 0.420865
vt 0.722969 0.147496
vt 0.943741 0.218532
vt 0.846185 0.568361
vt 0.071749 0.000000
vt 0.071749 0.005425
vt 0.143498 0.000000
vt 0.000172 0.429303
vt 0.291341 0.355926
vt 0.405837 0.355926
vt 0.697178 0.355254
vt 0.697006 0.429303
vt 0.993285 0.355254
vt 1.000000 0.355254
vt 1.000000 0.366662
vt 0.986570 0.355254
vt 0.993285 0.643697
vt 0.986570 0.575429
vt 0.916350 0.644822
vt 0.923065 0.644822
vt 0.923065 0.718701
vt 0.916350 0.769556
vt 0.923065 0.769556
vt 0.923065 0.989226
vt 0.979855 0.575429
vt 0.986570 0.626402
vt 0.405792 0.480705
vt 0.696887 0.480276
vt 0.696375 0.700453
vt 0.000802 0.700453
vt 0.000291 0.480276
vt 0.291385 0.480705
vt 0.979855 0.626402
vt 0.986570 0.700451
vt 0.916350 0.718701
vt 0.405811 0.429831
vt 0.291367 0.429831
vt 0.291464 0.700453
vt 0.337049 0.480766
vt 0.360129 0.480766
vt 0.405714 0.700453
vt 0.986570 0.643697
vt 0.993285 0.688941
vt 0.993285 0.411811
vt 1.000000 0.411811
vt 1.000000 0.699583
vt 0.360138 0.356022
vt 0.337039 0.356022
vt 0.337045 0.429907
vt 0.348589 0.356048
vt 0.360133 0.429907
vt 0.986570 0.688941
vt 0.993285 0.700376
vt 0.348589 0.480783
vt 0.360112 0.700453
vt 0.337066 0.700453
vt 0.348589 0.429927
vt 0.993285 0.366662
vt 0.657510 0.700453
vt 0.684371 0.745662
vt 0.670940 0.700453
vt 0.670940 0.751312
vt 0.547926 0.913575
vt 0.925062 0.710507
vt 0.273965 0.913605
vt 0.943741 0.355179
vt 0.219172 0.915210
vt 0.717490 0.355194
vt 0.751973 0.990021
vt 0.806765 0.989946
vt 0.000000 0.924409
vt 0.219169 0.918984
vt 0.881866 0.355179
vt 0.683135 0.745662
vt 0.695329 0.700453
vt 0.669704 0.751312
vt 0.657510 0.805574
vt 0.430494 0.065626
vt 0.717490 0.213152
vt 0.670940 0.799924
vt 0.005479 0.071051
vt 0.779900 0.568361
vt 0.840706 0.355254
vt 0.938262 0.218532
vt 0.979855 0.700451
vt 0.993285 0.699583
vt 0.986570 0.700376
vt 0.348589 0.700453
vt 0.664225 0.700453
vt 0.677656 0.700453
vn -1.000000 0.000000 0.000000
vn 1.000000 0.000000 0.000000
vn -0.000000 0.000000 1.000000
vn -0.000000 0.000000 -1.000000
vn -0.021700 0.036400 0.999100
vn 0.999600 0.000000 -0.029700
vn 0.038300 -0.014100 0.999200
vn 0.011300 0.000000 -0.999900
vn 0.999300 -0.036900 -0.005600
vn 0.038100 0.000000 -0.999300
vn 1.000000 0.000000 -0.005200
vn 0.000000 1.000000 0.000000
vn 0.000000 -1.000000 0.000000
vn 1.000000 0.000000 0.002300
vn -0.002300 0.000000 -1.000000
vn 1.000000 0.000000 0.002100
vn 0.000400 0.000000 1.000000
vn 1.000000 0.000000 0.001400
vn -0.000100 0.000000 -1.000000
vn -1.000000 0.000000 -0.001700
vn 0.005200 0.000000 1.000000
vn 0.998900 0.016800 -0.043900
vn -0.006000 0.036700 0.999300
vn -0.999800 -0.014500 -0.012000
vn 0.000000 -0.014600 -0.999900
vn 0.999600 -0.015000 -0.022200
vn 0.024400 -0.019300 -0.999500
vn 0.999100 -0.036400 0.021700
usemtl None
s off
f 4/1/1 3/2/1 1/3/1
f 43/4/2 42/5/2 40/6/2
f 49/7/2 48/8/2 46/9/2
f 70/10/3 69/11/3 67/12/3
f 8/13/4 7/14/4 3/15/4
f 6/16/3 22/17/3 11/18/3
f 9/19/4 12/20/4 7/14/4
f 5/21/3 11/18/3 10/22/3
f 16/23/4 13/24/4 12/20/4
f 13/22/1 14/25/1 15/26/1
f 18/27/4 17/28/4 13/24/4
f 28/29/2 19/30/2 17/31/2
f 2/32/1 1/3/1 20/33/1
f 31/34/2 30/35/2 22/36/2
f 10/37/1 24/38/1 27/39/1
f 27/40/3 24/38/3 25/37/3
f 41/41/2 40/6/2 19/30/2
f 21/42/1 20/33/1 29/43/1
f 47/44/2 46/9/2 30/35/2
f 32/45/1 35/46/1 36/25/1
f 36/47/3 35/16/3 39/21/3
f 26/11/1 25/10/1 37/48/1
f 38/38/3 34/49/3 39/21/3
f 60/50/1 45/51/1 29/43/1
f 52/52/4 51/48/4 48/53/4
f 64/54/4 51/48/4 52/52/4
f 37/48/1 53/54/1 54/55/1
f 56/56/2 55/57/2 42/5/2
f 59/58/3 58/47/3 63/49/3
f 60/50/1 44/59/1 58/60/1
f 57/61/3 63/49/3 61/38/3
f 66/62/2 65/63/2 64/64/2
f 68/65/2 67/66/2 55/57/2
f 73/67/2 74/68/2 72/69/2
f 112/70/1 113/71/1 111/72/1
f 118/73/1 119/36/1 117/74/1
f 139/75/4 140/76/4 138/77/4
f 77/78/3 78/79/3 74/80/3
f 81/81/4 92/82/4 76/83/4
f 82/84/3 79/85/3 78/79/3
f 81/81/4 75/86/4 93/87/4
f 82/84/5 83/88/5 86/89/5
f 85/90/6 84/91/6 83/92/6
f 83/88/7 87/93/7 88/94/7
f 89/95/1 98/69/1 88/68/1
f 71/96/2 72/69/2 91/72/2
f 100/97/1 101/98/1 76/99/1
f 94/100/2 80/101/2 93/102/2
f 95/103/8 94/104/8 97/105/8
f 110/106/1 111/72/1 98/69/1
f 90/107/2 91/72/2 115/71/2
f 116/108/1 117/74/1 101/98/1
f 105/109/2 102/110/2 103/111/2
f 105/63/4 106/62/4 104/112/4
f 108/113/9 107/114/9 95/115/9
f 107/116/10 109/117/10 104/112/10
f 99/118/2 115/71/2 130/119/2
f 118/120/3 121/121/3 122/122/3
f 121/121/3 134/45/3 120/22/3
f 124/123/11 123/124/11 107/114/11
f 125/125/1 126/119/1 113/71/1
f 128/126/4 129/127/4 127/128/4
f 114/129/2 130/119/2 129/130/2
f 133/131/4 127/128/4 132/55/4
f 135/109/1 136/77/1 120/76/1
f 137/132/1 138/130/1 126/119/1
f 34/133/12 104/134/12 106/135/12
f 6/136/12 5/137/12 75/138/12
f 52/139/12 122/140/12 120/141/12
f 14/142/3 84/143/3 85/144/3
f 42/145/13 112/146/13 110/147/13
f 60/148/12 59/149/12 129/150/12
f 66/151/3 136/152/3 135/153/3
f 53/154/3 123/155/3 124/156/3
f 2/157/12 72/158/12 74/159/12
f 37/160/13 39/161/13 109/162/13
f 41/163/12 111/164/12 113/165/12
f 69/166/13 139/167/13 137/168/13
f 16/169/12 86/170/12 88/171/12
f 10/172/13 11/173/13 81/174/13
f 57/175/12 127/176/12 129/150/12
f 61/177/2 131/178/2 132/179/2
f 26/180/12 96/181/12 97/182/12
f 14/183/13 13/169/13 83/184/13
f 48/185/13 118/186/13 116/187/13
f 63/188/13 133/189/13 131/190/13
f 13/169/13 83/184/13 82/191/13
f 33/192/4 103/193/4 102/194/4
f 8/195/12 78/196/12 79/197/12
f 70/198/12 68/199/12 138/200/12
f 19/201/13 89/202/13 87/203/13
f 1/204/13 3/205/13 73/206/13
f 65/207/13 135/208/13 134/209/13
f 49/210/12 47/211/12 117/212/12
f 70/152/1 140/213/1 139/214/1
f 20/215/13 90/216/13 99/217/13
f 13/169/13 17/218/13 87/203/13
f 15/219/12 85/220/12 86/170/12
f 25/221/13 24/222/13 94/223/13
f 44/224/13 114/225/13 128/226/13
f 6/136/12 76/31/12 101/227/12
f 63/188/13 58/228/13 128/226/13
f 1/204/13 71/229/13 90/216/13
f 32/230/13 102/231/13 105/232/13
f 16/169/12 9/233/12 79/197/12
f 12/233/13 82/191/13 77/234/13
f 29/235/13 99/217/13 114/225/13
f 31/236/12 101/227/12 117/212/12
f 8/195/12 4/205/12 74/159/12
f 40/237/13 110/147/13 89/202/13
f 48/185/13 51/238/13 121/239/13
f 38/240/12 54/241/12 124/242/12
f 62/243/12 132/244/12 127/176/12
f 28/245/12 18/218/12 88/171/12
f 55/246/13 125/247/13 112/146/13
f 39/161/13 35/248/13 105/232/13
f 45/249/12 115/250/12 91/251/12
f 25/221/13 95/252/13 107/253/13
f 28/245/12 98/254/12 111/164/12
f 10/172/13 80/255/13 94/223/13
f 55/246/13 67/256/13 137/168/13
f 22/257/13 30/258/13 100/259/13
f 33/260/12 36/261/12 106/135/12
f 23/262/12 93/263/12 75/138/12
f 22/257/13 92/256/13 81/174/13
f 60/148/12 130/264/12 115/250/12
f 21/265/12 91/251/12 72/158/12
f 7/195/13 77/234/13 73/206/13
f 51/238/13 64/266/13 134/209/13
f 26/180/12 38/240/12 108/267/12
f 66/268/12 50/269/12 120/141/12
f 49/210/12 119/270/12 122/140/12
f 46/271/13 116/187/13 100/259/13
f 37/160/13 107/253/13 123/272/13
f 23/262/12 27/273/12 97/182/12
f 38/240/12 108/267/12 104/134/12
f 56/274/12 126/275/12 138/200/12
f 43/276/12 113/165/12 126/275/12
f 155/277/13 142/149/13 157/278/13
f 159/279/12 147/280/12 156/281/12
f 143/282/1 145/283/1 166/284/1
f 142/285/14 147/282/14 159/286/14
f 141/28/15 148/285/15 152/287/15
f 144/288/3 146/289/3 154/290/3
f 149/291/3 151/292/3 145/293/3
f 150/294/15 152/287/15 156/295/15
f 161/296/12 152/297/12 148/298/12
f 141/299/13 150/300/13 162/301/13
f 155/302/15 156/295/15 147/303/15
f 153/304/3 154/290/3 151/292/3
f 163/305/12 156/281/12 152/297/12
f 150/300/13 155/277/13 164/306/13
f 158/307/13 162/301/13 167/308/13
f 171/309/12 161/296/12 160/310/12
f 157/311/16 159/286/16 170/312/16
f 158/313/1 160/314/1 148/315/1
f 170/316/12 159/279/12 163/305/12
f 164/306/13 157/278/13 169/317/13
f 168/318/13 169/317/13 144/319/13
f 146/319/12 170/316/12 172/320/12
f 169/321/14 170/312/14 146/322/14
f 151/323/12 171/309/12 166/324/12
f 165/325/13 167/308/13 149/323/13
f 154/326/12 172/320/12 171/309/12
f 167/308/13 168/318/13 153/326/13
f 165/327/1 166/284/1 160/314/1
f 164/156/17 163/177/17 161/328/17
f 167/214/18 162/329/18 161/144/18
f 168/330/19 167/331/19 171/156/19
f 163/144/20 164/192/20 168/330/20
f 2/32/1 4/1/1 1/3/1
f 41/41/2 43/4/2 40/6/2
f 47/44/2 49/7/2 46/9/2
f 68/332/3 70/10/3 67/12/3
f 4/333/4 8/13/4 3/15/4
f 5/21/3 6/16/3 11/18/3
f 8/13/4 9/19/4 7/14/4
f 23/39/3 5/21/3 10/22/3
f 9/19/4 16/23/4 12/20/4
f 16/39/1 13/22/1 15/26/1
f 16/23/4 18/27/4 13/24/4
f 18/93/2 28/29/2 17/31/2
f 21/42/1 2/32/1 20/33/1
f 6/87/2 31/34/2 22/36/2
f 23/26/1 10/37/1 27/39/1
f 26/334/3 27/40/3 25/37/3
f 28/29/2 41/41/2 19/30/2
f 45/51/1 21/42/1 29/43/1
f 31/34/2 47/44/2 30/35/2
f 33/22/1 32/45/1 36/25/1
f 34/49/3 36/47/3 39/21/3
f 38/128/1 26/11/1 37/48/1
f 37/39/3 38/38/3 39/21/3
f 44/59/1 60/50/1 29/43/1
f 49/45/4 52/52/4 48/53/4
f 50/120/4 64/54/4 52/52/4
f 38/128/1 37/48/1 54/55/1
f 43/4/2 56/56/2 42/5/2
f 57/61/3 59/58/3 63/49/3
f 59/335/1 60/50/1 58/60/1
f 62/40/3 57/61/3 61/38/3
f 50/336/2 66/62/2 64/64/2
f 56/56/2 68/65/2 55/57/2
f 71/96/2 73/67/2 72/69/2
f 110/106/1 112/70/1 111/72/1
f 116/108/1 118/73/1 117/74/1
f 137/337/4 139/75/4 138/77/4
f 73/338/3 77/78/3 74/80/3
f 75/86/4 81/81/4 76/83/4
f 77/78/3 82/84/3 78/79/3
f 80/123/4 81/81/4 93/87/4
f 79/85/21 82/84/21 86/89/21
f 86/82/22 85/90/22 83/92/22
f 86/89/23 83/88/23 88/94/23
f 87/339/24 89/95/24 88/68/24
f 90/107/2 71/96/2 91/72/2
f 92/340/1 100/97/1 76/99/1
f 97/341/2 94/100/2 93/102/2
f 96/127/25 95/103/25 97/105/25
f 89/95/1 110/106/1 98/69/1
f 99/118/2 90/107/2 115/71/2
f 100/97/1 116/108/1 101/98/1
f 106/342/2 105/109/2 103/111/2
f 109/117/4 105/63/4 104/112/4
f 96/101/26 108/113/26 95/115/26
f 108/124/27 107/116/27 104/112/27
f 114/129/2 99/118/2 130/119/2
f 119/17/3 118/120/3 122/122/3
f 122/122/3 121/121/3 120/22/3
f 108/113/28 124/123/28 107/114/28
f 112/70/1 125/125/1 113/71/1
f 133/131/4 128/126/4 127/128/4
f 128/288/2 114/129/2 129/130/2
f 131/328/4 133/131/4 132/55/4
f 134/110/1 135/109/1 120/76/1
f 125/125/1 137/132/1 126/119/1
f 36/261/12 34/133/12 106/135/12
f 76/31/12 6/136/12 75/138/12
f 50/269/12 52/139/12 120/141/12
f 15/343/3 14/142/3 85/144/3
f 40/237/13 42/145/13 110/147/13
f 130/264/12 60/148/12 129/150/12
f 65/344/3 66/151/3 135/153/3
f 54/345/3 53/154/3 124/156/3
f 4/205/12 2/157/12 74/159/12
f 107/253/13 37/160/13 109/162/13
f 43/276/12 41/163/12 113/165/12
f 67/256/13 69/166/13 137/168/13
f 18/218/12 16/169/12 88/171/12
f 80/255/13 10/172/13 81/174/13
f 59/149/12 57/175/12 129/150/12
f 62/346/2 61/177/2 132/179/2
f 27/273/12 26/180/12 97/182/12
f 84/347/13 14/183/13 83/184/13
f 46/271/13 48/185/13 116/187/13
f 61/348/13 63/188/13 131/190/13
f 12/233/13 13/169/13 82/191/13
f 32/349/4 33/192/4 102/194/4
f 9/233/12 8/195/12 79/197/12
f 140/350/12 70/198/12 138/200/12
f 17/218/13 19/201/13 87/203/13
f 71/229/13 1/204/13 73/206/13
f 64/266/13 65/207/13 134/209/13
f 119/270/12 49/210/12 117/212/12
f 69/153/1 70/152/1 139/214/1
f 29/235/13 20/215/13 99/217/13
f 83/184/13 13/169/13 87/203/13
f 16/169/12 15/219/12 86/170/12
f 95/252/13 25/221/13 94/223/13
f 58/228/13 44/224/13 128/226/13
f 31/236/12 6/136/12 101/227/12
f 133/189/13 63/188/13 128/226/13
f 20/215/13 1/204/13 90/216/13
f 35/248/13 32/230/13 105/232/13
f 86/170/12 16/169/12 79/197/12
f 7/195/13 12/233/13 77/234/13
f 44/224/13 29/235/13 114/225/13
f 47/211/12 31/236/12 117/212/12
f 78/196/12 8/195/12 74/159/12
f 19/201/13 40/237/13 89/202/13
f 118/186/13 48/185/13 121/239/13
f 108/267/12 38/240/12 124/242/12
f 57/175/12 62/243/12 127/176/12
f 98/254/12 28/245/12 88/171/12
f 42/145/13 55/246/13 112/146/13
f 109/162/13 39/161/13 105/232/13
f 21/265/12 45/249/12 91/251/12
f 37/160/13 25/221/13 107/253/13
f 41/163/12 28/245/12 111/164/12
f 24/222/13 10/172/13 94/223/13
f 125/247/13 55/246/13 137/168/13
f 92/256/13 22/257/13 100/259/13
f 103/351/12 33/260/12 106/135/12
f 5/137/12 23/262/12 75/138/12
f 11/173/13 22/257/13 81/174/13
f 45/249/12 60/148/12 115/250/12
f 2/157/12 21/265/12 72/158/12
f 3/205/13 7/195/13 73/206/13
f 121/239/13 51/238/13 134/209/13
f 96/181/12 26/180/12 108/267/12
f 136/352/12 66/268/12 120/141/12
f 52/139/12 49/210/12 122/140/12
f 30/258/13 46/271/13 100/259/13
f 53/353/13 37/160/13 123/272/13
f 93/263/12 23/262/12 97/182/12
f 34/133/12 38/240/12 104/134/12
f 68/199/12 56/274/12 138/200/12
f 56/274/12 43/276/12 126/275/12
f 164/306/13 155/277/13 157/278/13
f 163/305/12 159/279/12 156/281/12
f 165/327/1 143/282/1 166/284/1
f 157/311/14 142/285/14 159/286/14
f 150/294/15 141/28/15 152/287/15
f 153/304/3 144/288/3 154/290/3
f 143/67/3 149/291/3 145/293/3
f 155/302/15 150/294/15 156/295/15
f 160/310/12 161/296/12 148/298/12
f 158/307/13 141/299/13 162/301/13
f 142/354/15 155/302/15 147/303/15
f 149/291/3 153/304/3 151/292/3
f 161/296/12 163/305/12 152/297/12
f 162/301/13 150/300/13 164/306/13
f 165/325/13 158/307/13 167/308/13
f 166/324/12 171/309/12 160/310/12
f 169/321/16 157/311/16 170/312/16
f 141/355/1 158/313/1 148/315/1
f 172/320/12 170/316/12 163/305/12
f 168/318/13 164/306/13 169/317/13
f 153/326/13 168/318/13 144/319/13
f 154/326/12 146/319/12 172/320/12
f 144/356/14 169/321/14 146/322/14
f 145/357/12 151/323/12 166/324/12
f 143/357/13 165/325/13 149/323/13
f 151/323/12 154/326/12 171/309/12
f 149/323/13 167/308/13 153/326/13
f 158/313/1 165/327/1 160/314/1
f 162/358/17 164/156/17 161/328/17
f 171/359/18 167/214/18 161/144/18
f 172/358/19 168/330/19 171/156/19
f 172/359/20 163/144/20 168/330/20
l 128 137
l 137 87
l 87 73
l 73 128
