# Blender v2.75 (sub 0) OBJ File: 'maze_4.blend'
# www.blender.org
mtllib maze_easy.mtl
o maze_easy_Mesh.008
v -6.505100 -1.000000 -3.841127
v -6.505100 1.000000 -3.841127
v -6.505100 -1.000000 -6.460078
v -6.505100 1.000000 -6.460078
v -1.266093 1.000000 -3.841127
v -3.885596 1.000000 -3.841127
v -1.266093 -1.000000 -6.460078
v -1.266093 1.000000 -6.460078
v 1.353411 1.000000 -6.460078
v 1.353411 -1.000000 -3.841127
v -1.266093 -1.000000 -3.841127
v 1.353411 -1.000000 -6.460078
v 3.972915 -1.000000 -6.460078
v 3.972915 -1.000000 -3.841127
v 3.972915 1.000000 -3.841127
v 3.972915 1.000000 -6.460078
v 6.592418 -1.000000 -6.460078
v 6.592418 1.000000 -6.460078
v 6.592418 -1.000000 -3.841127
v -6.505100 -1.000000 -1.222177
v -6.505100 1.000000 -1.222177
v -3.885596 -1.000000 -3.841127
v 1.353411 1.000000 -3.841127
v 1.353411 -1.000000 -1.222177
v 3.972915 -1.000000 -1.222177
v 3.972915 1.000000 -1.222177
v 1.353411 1.000000 -1.222177
v 6.592418 1.000000 -3.841127
v -6.505100 -1.000000 1.396774
v -3.885596 -1.000000 -1.222177
v -3.885596 1.000000 -1.222177
v -1.266093 -1.000000 -1.222177
v -1.266093 1.000000 -1.222177
v 1.353411 1.000000 1.396774
v -1.266093 -1.000000 1.396774
v -1.266093 1.000000 1.396774
v 3.972915 -1.000000 1.396774
v 3.972915 1.000000 1.396774
v 1.353411 -1.000000 1.396774
v 6.592418 -1.000000 -1.222177
v 6.592418 1.000000 -1.222177
v 6.592418 -1.000000 1.396774
v 6.592418 1.000000 1.396774
v -6.505100 -1.000000 4.015724
v -6.505100 1.000000 1.396774
v -3.885596 -1.000000 1.396774
v -3.885596 1.000000 1.396774
v -3.885596 -1.000000 4.015724
v -3.885596 1.000000 4.015724
v 1.353411 1.000000 4.015724
v -1.266093 -1.000000 4.015724
v -1.266093 1.000000 4.015724
v 3.972915 -1.000000 4.015724
v 3.972915 1.000000 4.015724
v 6.592418 -1.000000 4.015724
v 6.592418 1.000000 4.015724
v -3.885596 1.000000 6.634675
v -6.505100 -1.000000 6.634675
v -6.505100 1.000000 6.634675
v -6.505100 1.000000 4.015724
v -1.266093 -1.000000 6.634675
v -1.266093 1.000000 6.634675
v -3.885596 -1.000000 6.634675
v 1.353411 -1.000000 4.015724
v 1.353411 -1.000000 6.634675
v 1.353411 1.000000 6.634675
v 6.592418 -1.000000 6.634675
v 6.592418 1.000000 6.634675
v 3.972915 -1.000000 6.634675
v 3.972915 1.000000 6.634675
v -6.305100 -1.000000 -3.841127
v -6.305100 1.000000 -3.841127
v -6.305100 -1.000000 -6.260078
v -6.305100 1.000000 -6.260078
v -1.266093 1.000000 -4.041127
v -4.085596 1.000000 -4.041127
v -1.266093 -1.000000 -6.260078
v -1.266093 1.000000 -6.260078
v 1.353411 1.000000 -6.260078
v 1.553411 -1.000000 -4.041127
v -1.266093 -1.000000 -4.041127
v 1.353411 -1.000000 -6.260078
v 4.102729 -1.000000 -6.200449
v 4.172915 -1.000000 -3.841127
v 4.172915 1.000000 -3.841127
v 4.065876 1.000000 -6.274154
v 6.421708 -1.000000 -6.289367
v 6.392418 1.000000 -6.260078
v 6.392418 -1.000000 -3.841127
v -6.305100 -1.000000 -1.222177
v -6.305100 1.000000 -1.222177
v -4.085596 -1.000000 -4.041127
v 1.553411 1.000000 -4.041127
v 1.553411 -1.000000 -1.422177
v 4.143625 -1.000000 -1.392888
v 4.172915 1.000000 -1.422177
v 1.553411 1.000000 -1.422177
v 6.392418 1.000000 -3.841127
v -6.305100 -1.000000 1.396774
v -4.085596 -1.000000 -1.222177
v -4.085596 1.000000 -1.222177
v -1.066093 -1.000000 -1.222177
v -1.066093 1.000000 -1.222177
v 1.353411 1.000000 1.196774
v -1.066093 -1.000000 1.196774
v -1.066093 1.000000 1.196774
v 4.158838 -1.000000 1.303812
v 4.232543 1.000000 1.266959
v 1.353411 -1.000000 1.196774
v 6.392418 -1.000000 -1.222177
v 6.392418 1.000000 -1.222177
v 6.392418 -1.000000 1.396774
v 6.392418 1.000000 1.396774
v -6.305100 -1.000000 4.015724
v -6.305100 1.000000 1.396774
v -4.085596 -1.000000 1.396774
v -4.085596 1.000000 1.396774
v -4.085596 -1.000000 4.215724
v -4.085596 1.000000 4.215724
v 1.153411 1.000000 4.215724
v -1.266093 -1.000000 4.215724
v -1.266093 1.000000 4.215724
v 4.172915 -1.000000 4.015724
v 4.172915 1.000000 4.015724
v 6.392418 -1.000000 4.015724
v 6.392418 1.000000 4.015724
v -3.885596 1.000000 6.434675
v -6.305100 -1.000000 6.434675
v -6.305100 1.000000 6.434675
v -6.305100 1.000000 4.015724
v -1.266093 -1.000000 6.434675
v -1.266093 1.000000 6.434675
v -3.885596 -1.000000 6.434675
v 1.153411 -1.000000 4.215724
v 1.153411 -1.000000 6.634675
v 1.153411 1.000000 6.634675
v 6.392418 -1.000000 6.434675
v 6.392418 1.000000 6.434675
v 3.972915 -1.000000 6.434675
v 3.972915 1.000000 6.434675
v -6.305100 -1.312702 -6.260078
v 6.421708 -1.312702 -6.289367
v -6.305100 -1.312702 6.434675
v 6.392418 -1.312702 6.434675
v -6.305100 -1.067589 6.434675
v 6.392418 -1.067589 6.434675
v 6.421708 -1.067589 -6.289367
v -6.305100 -1.067589 -6.260078
v 1.495156 -1.312702 6.434675
v 1.812366 -1.312702 -6.278759
v 1.495156 -1.067589 6.434675
v 1.812366 -1.067589 -6.278759
v 3.966340 -1.312702 6.434675
v 3.966340 -1.067589 6.434675
v 3.691643 -1.312702 -6.283084
v 3.691643 -1.067589 -6.283084
v 6.396923 -1.312702 4.345027
v -6.305100 -1.312702 4.349531
v 6.396923 -1.067589 4.345027
v -6.305100 -1.067589 4.349531
v 1.498943 -1.067589 3.979280
v 1.498943 -1.312702 3.979280
v 3.971003 -1.067589 3.978615
v 3.971003 -1.312702 3.978615
v -6.305100 -1.312702 6.014070
v -6.305100 -1.067589 6.014070
v 1.495972 -1.312702 6.013450
v 3.967345 -1.312702 6.013308
v 6.393389 -1.312702 6.013099
v 6.393389 -1.067589 6.013099
v 1.495972 -1.067589 6.013450
v 3.967345 -1.067589 6.013308
v 1.229385 -1.000000 6.634675
v 1.229385 1.000000 6.634675
v 1.229385 -1.000000 6.434675
v 1.229385 1.000000 6.434675
vt 1.000000 0.284143
vt 1.000000 0.355179
vt 0.945127 0.355179
vt 0.945127 0.284143
vt 0.753075 0.786893
vt 0.753075 0.857929
vt 0.698202 0.857929
vt 0.698202 0.786893
vt 0.109745 0.842524
vt 0.109745 0.913559
vt 0.054873 0.913560
vt 0.054873 0.842524
vt 0.384113 0.913605
vt 0.384113 0.842554
vt 0.438985 0.842554
vt 0.438985 0.913605
vt 0.981294 0.355254
vt 0.981294 0.497355
vt 0.926421 0.497355
vt 0.926421 0.355254
vt 0.493858 0.771503
vt 0.493858 0.700452
vt 0.548731 0.700453
vt 0.548731 0.771503
vt 0.981294 0.568406
vt 0.926421 0.568406
vt 0.493858 0.842554
vt 0.548731 0.842554
vt 0.981294 0.639456
vt 0.926421 0.639456
vt 0.548731 0.913590
vt 0.493858 0.913590
vt 0.981294 0.710507
vt 0.926421 0.710507
vt 0.753075 0.644821
vt 0.753075 0.715857
vt 0.698202 0.715857
vt 0.698202 0.644822
vt 1.000000 0.213107
vt 0.945127 0.213107
vt 0.109745 0.700452
vt 0.109745 0.771488
vt 0.054873 0.771488
vt 0.054873 0.700453
vt 0.329239 0.844174
vt 0.384111 0.844174
vt 0.384111 0.915210
vt 0.329239 0.915210
vt 1.000000 0.142071
vt 0.945127 0.142071
vt 0.274363 0.847949
vt 0.329236 0.847949
vt 0.329236 0.918984
vt 0.274363 0.918984
vt 0.384113 0.771503
vt 0.384113 0.700452
vt 0.438985 0.700453
vt 0.438985 0.771503
vt 0.603603 0.700452
vt 0.658476 0.700452
vt 0.658476 0.771488
vt 0.603603 0.771488
vt 1.000000 0.071036
vt 0.945127 0.071036
vt 0.603603 0.842554
vt 0.658476 0.842524
vt 0.603603 0.842524
vt 0.753075 0.928964
vt 0.698202 0.928964
vt 0.164618 0.839190
vt 0.164618 0.910241
vt 0.109745 0.910241
vt 0.109745 0.839190
vt 1.000000 0.000000
vt 0.945127 0.000000
vt 0.164618 0.768139
vt 0.109745 0.768139
vt 0.603603 0.913590
vt 0.753075 1.000000
vt 0.698202 1.000000
vt 0.862823 0.710433
vt 0.862823 0.644822
vt 0.917696 0.644821
vt 0.917696 0.710432
vt 0.807950 0.852504
vt 0.807950 0.781468
vt 0.862823 0.781468
vt 0.862823 0.852504
vt 0.054873 0.847949
vt 0.054873 0.924409
vt 0.000000 0.924409
vt 0.000000 0.847949
vt 0.773417 0.289568
vt 0.773417 0.355194
vt 0.718544 0.355194
vt 0.718544 0.289568
vt 0.753078 0.990020
vt 0.753077 0.853344
vt 0.807950 0.853344
vt 0.807950 0.990020
vt 0.274363 0.776928
vt 0.274363 0.853403
vt 0.219491 0.853403
vt 0.219491 0.776928
vt 0.753077 0.782293
vt 0.807950 0.782293
vt 0.274363 0.700453
vt 0.219491 0.700452
vt 0.753075 0.707722
vt 0.807950 0.708721
vt 0.981294 0.776504
vt 0.926421 0.776500
vt 0.926423 0.712504
vt 0.807949 0.645616
vt 0.807950 0.989945
vt 0.807950 0.923540
vt 0.862823 0.923540
vt 0.862823 0.989151
vt 0.917696 0.781468
vt 0.054873 0.776913
vt 0.000000 0.776913
vt 0.000000 0.700452
vt 0.274363 0.924439
vt 0.219491 0.924439
vt 0.658477 0.843317
vt 0.658476 0.913575
vt 0.917696 0.852504
vt 0.828289 0.289568
vt 0.883162 0.289568
vt 0.883162 0.355179
vt 0.828289 0.355179
vt 0.384111 0.778547
vt 0.329239 0.778548
vt 0.274363 0.775007
vt 0.329239 0.774010
vt 0.329239 0.847155
vt 0.384113 0.702449
vt 0.329239 0.700452
vt 0.917696 0.923539
vt 0.493858 0.776928
vt 0.438985 0.776928
vt 0.807950 0.710432
vt 0.219491 0.839190
vt 0.219491 0.904816
vt 0.164618 0.904816
vt 0.917696 0.989150
vt 0.219491 0.768139
vt 0.807950 0.644822
vt 0.775559 0.497325
vt 0.847429 0.497325
vt 0.847429 0.502750
vt 0.781046 0.502750
vt 0.703689 0.639397
vt 0.775559 0.639397
vt 0.775559 0.644821
vt 0.847429 0.426290
vt 0.775559 0.426290
vt 0.775559 0.420865
vt 0.841941 0.420865
vt 0.677413 0.767052
vt 0.677413 0.821299
vt 0.671926 0.821299
vt 0.671926 0.767052
vt 0.502981 0.000000
vt 0.574835 0.000000
vt 0.574835 0.005425
vt 0.502981 0.005425
vt 0.071854 0.355254
vt 0.000000 0.355254
vt 0.005487 0.349829
vt 0.071854 0.349829
vt 0.678651 0.820504
vt 0.678651 0.766257
vt 0.684138 0.766257
vt 0.684138 0.820504
vt 0.690863 0.754700
vt 0.690863 0.808947
vt 0.685376 0.808947
vt 0.685376 0.754700
vt 0.359272 0.355254
vt 0.287418 0.355254
vt 0.287418 0.349829
vt 0.353785 0.349829
vt 0.939640 0.147496
vt 0.867770 0.147496
vt 0.867770 0.142071
vt 0.944741 0.144975
vt 0.143709 0.000000
vt 0.215563 0.000000
vt 0.215563 0.005425
vt 0.143709 0.005425
vt 0.718544 0.000000
vt 0.718544 0.071051
vt 0.713057 0.071051
vt 0.713057 0.005425
vt 0.359272 0.000000
vt 0.359272 0.071051
vt 0.354171 0.068529
vt 0.353785 0.005425
vt 0.867770 0.005425
vt 0.795901 0.005425
vt 0.795901 0.000000
vt 0.873258 0.000000
vt 0.000000 0.284203
vt 0.005487 0.284203
vt 0.718544 0.213152
vt 0.713057 0.213152
vt 0.713057 0.145466
vt 0.718544 0.145466
vt 0.847429 0.568361
vt 0.919298 0.568361
vt 0.924785 0.573786
vt 0.852916 0.573786
vt 0.431126 0.071051
vt 0.366395 0.067530
vt 0.431126 0.065626
vt 0.724031 0.147496
vt 0.724031 0.218532
vt 0.718544 0.223957
vt 0.718544 0.147496
vt 0.718544 0.284203
vt 0.713057 0.284203
vt 0.359272 0.142101
vt 0.364759 0.142101
vt 0.663963 0.767504
vt 0.663963 0.821751
vt 0.658476 0.821751
vt 0.658476 0.767504
vt 0.359272 0.213152
vt 0.353785 0.213152
vt 0.353785 0.142101
vt 0.000000 0.071051
vt 0.000000 0.000000
vt 0.005487 0.005425
vt 0.005487 0.071051
vt 0.431126 0.000000
vt 0.431126 0.005425
vt 0.363956 0.004630
vt 0.431126 0.355254
vt 0.364759 0.349829
vt 0.431126 0.349829
vt 0.867770 0.218532
vt 0.867770 0.289568
vt 0.862283 0.289568
vt 0.862283 0.223957
vt 0.703689 0.426290
vt 0.703689 0.497325
vt 0.698202 0.497325
vt 0.698202 0.420865
vt 0.690863 0.700452
vt 0.685376 0.700452
vt 0.574835 0.355254
vt 0.502981 0.355254
vt 0.502981 0.349829
vt 0.574835 0.349829
vt 0.287418 0.071051
vt 0.287418 0.065626
vt 0.939640 0.076460
vt 0.867770 0.076460
vt 0.873258 0.071036
vt 0.944324 0.071830
vt 0.718544 0.355254
vt 0.646690 0.355254
vt 0.646690 0.349829
vt 0.713057 0.349829
vt 0.703689 0.568361
vt 0.698202 0.568361
vt 0.795901 0.147496
vt 0.795901 0.076460
vt 0.801388 0.076460
vt 0.801388 0.142071
vt 0.364759 0.213152
vt 0.795901 0.218532
vt 0.795901 0.223957
vt 0.919298 0.497325
vt 0.919298 0.426289
vt 0.924785 0.426289
vt 0.926421 0.500846
vt 0.000000 0.213152
vt 0.005487 0.213152
vt 0.287418 0.000000
vt 0.287418 0.005425
vt 0.646690 0.000000
vt 0.646690 0.005425
vt 0.215563 0.355254
vt 0.143709 0.355254
vt 0.143709 0.349829
vt 0.215563 0.349829
vt 0.724031 0.005425
vt 0.724031 0.076460
vt 0.718544 0.076460
vt 0.775559 0.568361
vt 0.781046 0.568361
vt 0.847429 0.639397
vt 0.852916 0.644821
vt 0.847428 0.355254
vt 0.841941 0.355254
vt 0.939640 0.218532
vt 0.945127 0.218532
vt 0.071854 0.000000
vt 0.071854 0.005425
vt 0.281716 0.421726
vt 0.000172 0.429303
vt 0.291769 0.355926
vt 0.416486 0.421726
vt 0.406433 0.355926
vt 0.698202 0.355254
vt 0.698030 0.429303
vt 0.924421 0.977742
vt 0.924421 0.989151
vt 0.917696 0.977742
vt 0.988019 0.643697
vt 0.988019 0.355254
vt 0.994744 0.355254
vt 0.994744 0.643697
vt 0.981294 0.575429
vt 0.988019 0.575429
vt 0.685376 0.766257
vt 0.678651 0.700452
vt 0.698202 0.700452
vt 0.698202 0.912025
vt 0.691477 0.912025
vt 0.691477 0.700453
vt 0.981294 0.626401
vt 0.988019 0.626401
vt 0.406310 0.700452
vt 0.416468 0.488778
vt 0.697911 0.480276
vt 0.697398 0.700452
vt 0.291892 0.700452
vt 0.000804 0.700452
vt 0.000291 0.480276
vt 0.281734 0.488778
vt 0.981294 0.700451
vt 0.988019 0.700451
vt 0.337561 0.700452
vt 0.337544 0.488858
vt 0.360641 0.700452
vt 0.360658 0.488858
vt 0.988019 0.688941
vt 0.994744 0.688941
vt 0.924421 0.644821
vt 0.924421 0.932594
vt 0.917696 0.932594
vt 0.360662 0.421825
vt 0.360668 0.356022
vt 0.337540 0.421825
vt 0.337535 0.356022
vt 0.349101 0.421853
vt 0.349101 0.356048
vt 0.988019 0.700376
vt 0.994744 0.700376
vt 0.349101 0.700452
vt 0.349101 0.488880
vt 0.665201 0.700452
vt 0.671926 0.700452
vt 0.671926 0.711882
vt 0.665201 0.711882
vt 0.665201 0.767504
vt 0.678651 0.711878
vt 0.678651 0.767052
vt 0.665201 0.767070
vt 0.665201 0.821317
vt 0.670688 0.767070
vt 0.670688 0.821317
vt 0.164618 0.700452
vt 0.000000 0.145466
vt 0.005487 0.145466
vn -1.000000 0.000000 0.000000
vn 1.000000 0.000000 0.000000
vn -0.000000 0.000000 1.000000
vn 0.000000 0.000000 -1.000000
vn -0.008300 0.018300 0.999800
vn 0.999300 0.008500 -0.037000
vn 0.016100 0.011400 0.999800
vn -1.000000 -0.007300 -0.006000
vn 0.005600 -0.007400 -1.000000
vn 0.999600 -0.026000 -0.013900
vn 0.031200 -0.009800 -0.999500
vn 0.999800 -0.018300 0.008300
vn 0.000000 1.000000 0.000000
vn 0.000000 -1.000000 0.000000
vn 1.000000 0.000000 0.002300
vn -0.002300 0.000000 -1.000000
vn 1.000000 0.000000 0.002100
vn -1.000000 0.000000 -0.002400
vn 0.000300 0.000000 1.000000
vn 1.000000 0.000000 0.001500
vn 1.000000 0.000000 0.001900
vn -1.000000 0.000000 -0.001800
usemtl None
s off
f 2/1/1 4/2/1 3/3/1 1/4/1
f 41/5/2 43/6/2 42/7/2 40/8/2
f 47/9/2 49/10/2 48/11/2 46/12/2
f 68/13/3 70/14/3 69/15/3 67/16/3
f 4/17/4 8/18/4 7/19/4 3/20/4
f 5/21/3 6/22/3 22/23/3 11/24/3
f 8/18/4 9/25/4 12/26/4 7/19/4
f 23/27/3 5/21/3 11/24/3 10/28/3
f 9/25/4 16/29/4 13/30/4 12/26/4
f 16/31/1 13/32/1 14/27/1 15/28/1
f 16/29/4 18/33/4 17/34/4 13/30/4
f 18/35/2 28/36/2 19/37/2 17/38/2
f 21/39/1 2/1/1 1/4/1 20/40/1
f 6/41/2 31/42/2 30/43/2 22/44/2
f 23/45/1 10/46/1 24/47/1 27/48/1
f 26/27/3 27/32/3 24/16/3 25/15/3
f 28/36/2 41/5/2 40/8/2 19/37/2
f 45/49/1 21/39/1 20/40/1 29/50/1
f 31/42/2 47/9/2 46/12/2 30/43/2
f 33/51/1 32/52/1 35/53/1 36/54/1
f 34/55/3 36/56/3 35/57/3 39/58/3
f 26/59/1 25/60/1 37/61/1 38/62/1
f 38/14/3 34/55/3 39/58/3 37/15/3
f 60/63/1 45/49/1 29/50/1 44/64/1
f 52/62/4 51/24/4 48/23/4 49/59/4
f 50/65/4 64/28/4 51/24/4 52/62/4
f 38/62/1 37/61/1 53/66/1 54/67/1
f 43/6/2 56/68/2 55/69/2 42/7/2
f 57/70/3 59/71/3 58/72/3 63/73/3
f 59/74/1 60/63/1 44/64/1 58/75/1
f 62/76/3 57/70/3 63/73/3 61/77/3
f 50/65/2 66/78/2 65/31/2 64/28/2
f 56/68/2 68/79/2 67/80/2 55/69/2
f 71/81/2 73/82/2 74/83/2 72/84/2
f 110/85/1 112/86/1 113/87/1 111/88/1
f 116/89/1 118/90/1 119/91/1 117/92/1
f 137/93/4 139/94/4 140/95/4 138/96/4
f 73/97/3 77/98/3 78/99/3 74/100/3
f 81/101/4 92/102/4 76/103/4 75/104/4
f 77/98/3 82/105/3 79/106/3 78/99/3
f 80/107/4 81/101/4 75/104/4 93/108/4
f 82/105/5 83/109/5 86/110/5 79/106/5
f 85/111/6 84/112/6 83/113/6 86/33/6
f 83/109/7 87/35/7 88/114/7 86/110/7
f 87/115/8 89/116/8 98/117/8 88/118/8
f 90/87/2 71/81/2 72/84/2 91/119/2
f 92/44/1 100/120/1 101/121/1 76/122/1
f 97/103/2 94/102/2 80/123/2 93/124/2
f 95/125/9 94/126/9 97/78/9 96/67/9
f 89/116/1 110/85/1 111/88/1 98/117/1
f 99/88/2 90/87/2 91/119/2 115/127/2
f 100/120/1 116/89/1 117/92/1 101/121/1
f 106/128/2 105/129/2 102/130/2 103/131/2
f 109/132/4 105/46/4 106/45/4 104/133/4
f 108/134/10 107/135/10 95/136/10 96/51/10
f 107/137/11 109/132/11 104/133/11 108/138/11
f 114/117/2 99/88/2 115/127/2 130/139/2
f 119/57/3 118/22/3 121/140/3 122/141/3
f 122/141/3 121/140/3 134/27/3 120/15/3
f 124/107/12 123/138/12 107/135/12 108/134/12
f 112/86/1 125/142/1 126/81/1 113/87/1
f 133/143/4 128/144/4 129/145/4 127/70/4
f 128/118/2 114/117/2 130/139/2 129/146/2
f 131/147/4 133/143/4 127/70/4 132/76/4
f 134/94/1 135/93/1 136/128/1 120/131/1
f 125/142/1 137/148/1 138/82/1 126/81/1
f 36/149/13 34/150/13 104/151/13 106/152/13
f 6/153/13 5/154/13 75/155/13 76/38/13
f 50/156/13 52/157/13 122/158/13 120/159/13
f 15/160/3 14/161/3 84/162/3 85/163/3
f 40/164/14 42/165/14 112/166/14 110/167/14
f 60/168/13 59/169/13 129/170/13 130/171/13
f 65/172/3 66/173/3 136/174/3 135/175/3
f 54/176/3 53/177/3 123/178/3 124/179/3
f 4/180/13 2/181/13 72/182/13 74/183/13
f 37/184/14 39/185/14 109/186/14 107/187/14
f 43/188/13 41/189/13 111/190/13 113/191/13
f 67/192/14 69/193/14 139/194/14 137/195/14
f 18/196/13 16/197/13 86/198/13 88/199/13
f 10/200/14 11/201/14 81/202/14 80/203/14
f 59/169/13 57/204/13 127/205/13 129/170/13
f 61/206/14 131/207/14 175/208/14 173/209/14
f 27/210/13 26/211/13 96/212/13 97/213/13
f 14/214/14 13/197/14 83/215/14 84/216/14
f 46/217/14 48/218/14 118/219/14 116/220/14
f 61/206/14 63/221/14 133/222/14 131/207/14
f 12/223/14 13/197/14 83/215/14 82/224/14
f 32/225/4 33/226/4 103/227/4 102/228/4
f 9/223/13 8/229/13 78/230/13 79/231/13
f 70/232/13 68/233/13 138/234/13 140/235/13
f 17/196/14 19/236/14 89/237/14 87/238/14
f 1/239/14 3/180/14 73/240/14 71/241/14
f 64/242/14 65/243/14 135/244/14 134/245/14
f 49/246/13 47/247/13 117/248/13 119/249/13
f 69/250/1 70/176/1 140/179/1 139/251/1
f 29/252/14 20/253/14 90/254/14 99/255/14
f 13/197/14 17/196/14 87/238/14 83/215/14
f 16/197/13 15/256/13 85/257/13 86/198/13
f 25/258/14 24/259/14 94/260/14 95/261/14
f 58/262/14 44/263/14 114/264/14 128/265/14
f 31/266/13 6/153/13 76/38/13 101/267/13
f 63/221/14 58/262/14 128/265/14 133/222/14
f 20/253/14 1/239/14 71/241/14 90/254/14
f 35/268/14 32/269/14 102/270/14 105/271/14
f 16/197/13 9/223/13 79/231/13 86/198/13
f 7/229/14 12/223/14 82/224/14 77/272/14
f 44/263/14 29/252/14 99/255/14 114/264/14
f 47/247/13 31/266/13 101/267/13 117/248/13
f 8/229/13 4/180/13 74/183/13 78/230/13
f 19/236/14 40/164/14 110/167/14 89/237/14
f 48/218/14 51/273/14 121/274/14 118/219/14
f 38/275/13 54/276/13 124/277/13 108/278/13
f 57/204/13 62/279/13 132/280/13 127/205/13
f 28/281/13 18/196/13 88/199/13 98/282/13
f 42/165/14 55/283/14 125/284/14 112/166/14
f 39/185/14 35/268/14 105/271/14 109/186/14
f 21/285/13 45/286/13 115/287/13 91/288/13
f 37/184/14 25/258/14 95/261/14 107/187/14
f 41/189/13 28/281/13 98/282/13 111/190/13
f 24/259/14 10/200/14 80/203/14 94/260/14
f 55/283/14 67/192/14 137/195/14 125/284/14
f 22/289/14 30/290/14 100/291/14 92/192/14
f 33/292/13 36/149/13 106/152/13 103/293/13
f 5/154/13 23/294/13 93/295/13 75/155/13
f 11/201/14 22/289/14 92/192/14 81/202/14
f 45/286/13 60/168/13 130/171/13 115/287/13
f 2/181/13 21/285/13 91/288/13 72/182/13
f 3/180/14 7/229/14 77/272/14 73/240/14
f 51/273/14 64/242/14 134/245/14 121/274/14
f 26/211/13 38/275/13 108/278/13 96/212/13
f 66/296/13 50/156/13 120/159/13 136/297/13
f 52/157/13 49/246/13 119/249/13 122/158/13
f 30/290/14 46/217/14 116/220/14 100/291/14
f 53/298/14 37/184/14 107/187/14 123/299/14
f 23/294/13 27/210/13 97/213/13 93/295/13
f 34/150/13 38/275/13 108/278/13 104/151/13
f 68/233/13 56/300/13 126/301/13 138/234/13
f 56/300/13 43/188/13 113/191/13 126/301/13
f 164/302/14 155/303/14 142/169/14 157/304/14
f 163/305/13 159/306/13 147/307/13 156/308/13
f 165/309/1 143/310/1 145/146/1 166/311/1
f 157/312/15 142/313/15 147/314/15 159/315/15
f 150/316/16 141/17/16 148/313/16 152/317/16
f 153/251/3 144/318/3 146/173/3 154/319/3
f 143/320/3 149/321/3 151/322/3 145/323/3
f 155/324/16 150/316/16 152/317/16 156/325/16
f 160/326/13 161/327/13 152/328/13 148/329/13
f 158/330/14 141/331/14 150/332/14 162/333/14
f 142/334/16 155/324/16 156/325/16 147/335/16
f 161/327/13 163/305/13 156/308/13 152/328/13
f 162/333/14 150/332/14 155/303/14 164/302/14
f 165/336/14 158/330/14 162/333/14 167/337/14
f 166/338/13 171/339/13 161/327/13 160/326/13
f 169/340/17 157/312/17 159/315/17 170/341/17
f 141/342/1 158/343/1 160/344/1 148/83/1
f 172/345/13 170/346/13 159/306/13 163/305/13
f 168/347/14 164/302/14 157/304/14 169/348/14
f 153/349/14 168/347/14 169/348/14 144/350/14
f 154/349/13 146/350/13 170/346/13 172/345/13
f 144/351/15 169/340/15 170/341/15 146/352/15
f 145/353/13 151/354/13 171/339/13 166/338/13
f 143/353/14 165/336/14 167/337/14 149/354/14
f 153/355/18 154/356/18 172/357/18 168/358/18
f 158/343/1 165/309/1 166/311/1 160/344/1
f 162/355/19 164/359/19 163/228/19 161/60/19
f 171/357/20 167/360/20 162/361/20 161/163/20
f 149/319/21 167/360/21 171/357/21 151/356/21
f 172/357/22 163/163/22 164/362/22 168/358/22
f 174/363/2 173/362/2 175/364/2 176/365/2
f 131/147/4 132/76/4 176/366/4 175/108/4
f 62/76/3 61/77/3 173/41/3 174/366/3
f 132/280/13 62/279/13 174/367/13 176/368/13
