# Blender v2.75 (sub 0) OBJ File: 'hockey_table.blend'
# www.blender.org
mtllib hockey_table.mtl
o Cube
v 5.960559 -1.000000 -2.883227
v 5.960559 -1.000000 2.883227
v -5.960560 -1.000000 2.883226
v -5.960557 -1.000000 -2.883228
v 5.960562 1.000000 -2.883226
v 5.960556 1.000000 2.883229
v -5.960561 1.000000 2.883226
v -5.960558 1.000000 -2.883227
v 5.698812 1.000000 -2.508739
v 5.698805 1.000000 2.508741
v -5.698808 1.000000 -2.508740
v -5.698811 1.000000 2.508739
v 5.698812 0.430693 -2.508739
v 5.698805 0.430693 2.508741
v -5.698808 0.430693 -2.508740
v -5.698811 0.430693 2.508739
vn 1.000000 0.000000 0.000000
vn 0.000000 1.000000 0.000000
vn -0.000000 0.000000 1.000000
vn -1.000000 0.000000 -0.000000
vn 0.000000 0.000000 -1.000000
vn 0.000000 -1.000000 0.000000
usemtl All_Blue
s off
f 5//1 6//1 2//1
f 7//2 12//2 11//2
f 6//3 7//3 3//3
f 3//4 7//4 8//4
f 1//5 4//5 8//5
f 5//2 8//2 11//2
f 6//2 10//2 12//2
f 6//2 5//2 9//2
f 1//1 5//1 2//1
f 8//2 7//2 11//2
f 1//6 2//6 4//6
f 7//2 6//2 12//2
f 9//2 5//2 11//2
f 10//2 6//2 9//2
f 5//5 1//5 8//5
f 4//4 3//4 8//4
f 2//3 6//3 3//3
f 2//6 3//6 4//6
usemtl Material
f 12//1 16//1 15//1
f 15//2 16//2 14//2
f 11//3 15//3 13//3
f 10//5 14//5 16//5
f 9//4 13//4 14//4
f 10//4 9//4 14//4
f 12//5 10//5 16//5
f 9//3 11//3 13//3
f 13//2 15//2 14//2
f 11//1 12//1 15//1
